# xmcd CD database file
#
# Track frame offsets:
#	150
#	10686
#	23920
#	38677
#	50897
#	62704
#	71622
#	88694
#	109150
#	126916
#	145500
#	161260
#	184256
#	202223
#	222375
#
# Disc length: 3301 seconds
#
# Revision: 3
# Processed by: cddbd v1.5.2PL0 Copyright (c) Steve Scherf et al.
# Submitted via: CDex 1.51
#
DISCID=d90ce30f
DTITLE=Billie Holiday - [CD 07-10] - Willow Weep For Me
DYEAR=1900
DGENRE=Jazz
TTITLE0=Too Marvelous For Words  [1954]
TTITLE1=I Thought About You  [1954]
TTITLE2=Willow Weep For Me  [1954]
TTITLE3=Love Me Or Leave Me  [1954]
TTITLE4=Lover Man  (Oh, Where Can You Be ¿)  [1955]
TTITLE5=Them There Eyes  [1955]
TTITLE6=Stormy Weather  [1955]
TTITLE7=(I Don't Stand A)  Ghost Of A Chance  [1955]
TTITLE8=Nice Work If You Can Get It  [1955]
TTITLE9=It Had To Be You  [1955]
TTITLE10=Gone With The Wind  [1955]
TTITLE11=When Your Lover Has Gone  [1955]
TTITLE12=I Don't Want To Cry Anymore  [1955]
TTITLE13=Please, Don't Talk About Me When I'm Gone  [1955]
TTITLE14=Prelude To A Kiss  [1955]
EXTD=
EXTT0=
EXTT1=
EXTT2=
EXTT3=
EXTT4=
EXTT5=
EXTT6=
EXTT7=
EXTT8=
EXTT9=
EXTT10=
EXTT11=
EXTT12=
EXTT13=
EXTT14=
PLAYORDER=
